# xmcd CD database file
#
# Track frame offsets:
#	150
#	13286
#	30125
#	44586
#	56677
#	69393
#	82004
#	95571
#	107703
#	120861
#
# Disc length: 1769 seconds
#
# Revision: 0
# Processed by: cddbd v1.5.2PL0 Copyright (c) Steve Scherf et al.
# Submitted via: CDex 1.70beta2
#
DISCID=7b06e70a
DTITLE=Magiczny świat jazzu - Wielkie głody zeńskie
DYEAR=2009
DGENRE=Jazz
TTITLE0=Judy Garland - The Trolley Song
TTITLE1=Billie Holiday - Stormy Weather
TTITLE2=Mildred Bailey - All The Glitters Is Not Gold
TTITLE3=Anita O'Day - Ain't This A Wonderful Day
TTITLE4=Judy Garland - Over The Rainbow
TTITLE5=Billie Holiday - I Thought About You
TTITLE6=Anita O'Day - Memories Of you
TTITLE7=Sarah Vaughan - Shulie A Bop
TTITLE8=Billie Holiday - East Of The Sun
TTITLE9=Mildred Bailey - Evaline
EXTD=YEAR: 2009
EXTT0=
EXTT1=
EXTT2=
EXTT3=
EXTT4=
EXTT5=
EXTT6=
EXTT7=
EXTT8=
EXTT9=
PLAYORDER=
